<?xml version="1.0" encoding="UTF-8" standalone="no"?>
<!DOCTYPE svg PUBLIC "-//W3C//DTD SVG 1.1//EN"
 "http://www.w3.org/Graphics/SVG/1.1/DTD/svg11.dtd">
<!-- Generated by graphviz version 13.1.1 (20250719.2154)
 -->
<!-- Pages: 1 -->
<svg width="1446pt" height="500pt"
 viewBox="0.00 0.00 1446.00 500.00" xmlns="http://www.w3.org/2000/svg" xmlns:xlink="http://www.w3.org/1999/xlink">
<g id="graph0" class="graph" transform="scale(1 1) rotate(0) translate(4 496)">
<polygon fill="white" stroke="none" points="-4,4 -4,-496 1442.12,-496 1442.12,4 -4,4"/>
<!-- B0 -->
<g id="node1" class="node">
<title>B0</title>
<path fill="#e0f7fa" stroke="black" d="M644.38,-475.5C644.38,-475.5 446.12,-475.5 446.12,-475.5 440.12,-475.5 434.12,-469.5 434.12,-463.5 434.12,-463.5 434.12,-430 434.12,-430 434.12,-424 440.12,-418 446.12,-418 446.12,-418 644.38,-418 644.38,-418 650.38,-418 656.38,-424 656.38,-430 656.38,-430 656.38,-463.5 656.38,-463.5 656.38,-469.5 650.38,-475.5 644.38,-475.5"/>
<text xml:space="preserve" text-anchor="middle" x="545.25" y="-458.2" font-family="Courier,monospace" font-size="14.00">METHOD ENTRY: main</text>
<text xml:space="preserve" text-anchor="middle" x="545.25" y="-441.7" font-family="Courier,monospace" font-size="14.00">Line: 2</text>
<text xml:space="preserve" text-anchor="middle" x="545.25" y="-425.2" font-family="Courier,monospace" font-size="14.00">L3: String str = &quot;madam&quot;;</text>
</g>
<!-- B1 -->
<g id="node2" class="node">
<title>B1</title>
<path fill="#e0f7fa" stroke="black" d="M656.75,-365.5C656.75,-365.5 433.75,-365.5 433.75,-365.5 427.75,-365.5 421.75,-359.5 421.75,-353.5 421.75,-353.5 421.75,-336.5 421.75,-336.5 421.75,-330.5 427.75,-324.5 433.75,-324.5 433.75,-324.5 656.75,-324.5 656.75,-324.5 662.75,-324.5 668.75,-330.5 668.75,-336.5 668.75,-336.5 668.75,-353.5 668.75,-353.5 668.75,-359.5 662.75,-365.5 656.75,-365.5"/>
<text xml:space="preserve" text-anchor="middle" x="545.25" y="-348.2" font-family="Courier,monospace" font-size="14.00">IF CONDITION</text>
<text xml:space="preserve" text-anchor="middle" x="545.25" y="-331.7" font-family="Courier,monospace" font-size="14.00">L5: if (isPalindrome(str)) {</text>
</g>
<!-- B0&#45;&gt;B1 -->
<g id="edge1" class="edge">
<title>B0&#45;&gt;B1</title>
<path fill="none" stroke="black" d="M545.25,-417.7C545.25,-404.95 545.25,-389.84 545.25,-376.78"/>
<polygon fill="black" stroke="black" points="545.25,-367.16 549.75,-377.16 545.25,-370.94 545.25,-377.16 545.25,-377.16 545.25,-377.16 545.25,-370.94 540.75,-377.16 545.25,-367.16"/>
</g>
<!-- B2 -->
<g id="node3" class="node">
<title>B2</title>
<path fill="#e0f7fa" stroke="black" d="M416.5,-288.5C416.5,-288.5 12,-288.5 12,-288.5 6,-288.5 0,-282.5 0,-276.5 0,-276.5 0,-259.5 0,-259.5 0,-253.5 6,-247.5 12,-247.5 12,-247.5 416.5,-247.5 416.5,-247.5 422.5,-247.5 428.5,-253.5 428.5,-259.5 428.5,-259.5 428.5,-276.5 428.5,-276.5 428.5,-282.5 422.5,-288.5 416.5,-288.5"/>
<text xml:space="preserve" text-anchor="middle" x="214.25" y="-271.2" font-family="Courier,monospace" font-size="14.00">THEN BRANCH</text>
<text xml:space="preserve" text-anchor="middle" x="214.25" y="-254.7" font-family="Courier,monospace" font-size="14.00">L6: System.out.println(str + &quot; is a palindrome.&quot;);</text>
</g>
<!-- B1&#45;&gt;B2 -->
<g id="edge2" class="edge">
<title>B1&#45;&gt;B2</title>
<path fill="none" stroke="black" d="M457.42,-324.1C413.09,-314.05 359.15,-301.83 313.34,-291.45"/>
<polygon fill="black" stroke="black" points="303.68,-289.26 314.43,-287.09 307.37,-290.1 313.43,-291.47 313.43,-291.47 313.43,-291.47 307.37,-290.1 312.44,-295.86 303.68,-289.26"/>
</g>
<!-- B4 -->
<g id="node5" class="node">
<title>B4</title>
<path fill="#e0f7fa" stroke="black" d="M896,-288.5C896,-288.5 458.5,-288.5 458.5,-288.5 452.5,-288.5 446.5,-282.5 446.5,-276.5 446.5,-276.5 446.5,-259.5 446.5,-259.5 446.5,-253.5 452.5,-247.5 458.5,-247.5 458.5,-247.5 896,-247.5 896,-247.5 902,-247.5 908,-253.5 908,-259.5 908,-259.5 908,-276.5 908,-276.5 908,-282.5 902,-288.5 896,-288.5"/>
<text xml:space="preserve" text-anchor="middle" x="677.25" y="-271.2" font-family="Courier,monospace" font-size="14.00">ELSE BRANCH</text>
<text xml:space="preserve" text-anchor="middle" x="677.25" y="-254.7" font-family="Courier,monospace" font-size="14.00">L8: System.out.println(str + &quot; is not a palindrome.&quot;);</text>
</g>
<!-- B1&#45;&gt;B4 -->
<g id="edge3" class="edge">
<title>B1&#45;&gt;B4</title>
<path fill="none" stroke="black" d="M580.28,-324.1C596.24,-315.03 615.33,-304.18 632.33,-294.52"/>
<polygon fill="black" stroke="black" points="641,-289.6 634.53,-298.45 637.71,-291.46 632.31,-294.54 632.31,-294.54 632.31,-294.54 637.71,-291.46 630.08,-290.62 641,-289.6"/>
</g>
<!-- B3 -->
<g id="node4" class="node">
<title>B3</title>
<path fill="#e0f7fa" stroke="black" d="M475.25,-209C475.25,-209 417.25,-209 417.25,-209 411.25,-209 405.25,-203 405.25,-197 405.25,-197 405.25,-185 405.25,-185 405.25,-179 411.25,-173 417.25,-173 417.25,-173 475.25,-173 475.25,-173 481.25,-173 487.25,-179 487.25,-185 487.25,-185 487.25,-197 487.25,-197 487.25,-203 481.25,-209 475.25,-209"/>
<text xml:space="preserve" text-anchor="middle" x="446.25" y="-185.95" font-family="Courier,monospace" font-size="14.00">IF MERGE</text>
</g>
<!-- B2&#45;&gt;B3 -->
<g id="edge4" class="edge">
<title>B2&#45;&gt;B3</title>
<path fill="none" stroke="black" d="M275.81,-247.1C312.8,-235.14 359.33,-220.1 394.42,-208.75"/>
<polygon fill="black" stroke="black" points="403.76,-205.73 395.63,-213.09 400.17,-206.9 394.25,-208.81 394.25,-208.81 394.25,-208.81 400.17,-206.9 392.86,-204.53 403.76,-205.73"/>
</g>
<!-- B4&#45;&gt;B3 -->
<g id="edge5" class="edge">
<title>B4&#45;&gt;B3</title>
<path fill="none" stroke="black" d="M615.95,-247.1C579.13,-235.14 532.8,-220.1 497.85,-208.75"/>
<polygon fill="black" stroke="black" points="488.56,-205.74 499.46,-204.54 492.15,-206.9 498.07,-208.82 498.07,-208.82 498.07,-208.82 492.15,-206.9 496.68,-213.1 488.56,-205.74"/>
</g>
<!-- B5 -->
<g id="node6" class="node">
<title>B5</title>
<path fill="#e0f7fa" stroke="black" d="M1322,-492C1322,-492 884.5,-492 884.5,-492 878.5,-492 872.5,-486 872.5,-480 872.5,-480 872.5,-413.5 872.5,-413.5 872.5,-407.5 878.5,-401.5 884.5,-401.5 884.5,-401.5 1322,-401.5 1322,-401.5 1328,-401.5 1334,-407.5 1334,-413.5 1334,-413.5 1334,-480 1334,-480 1334,-486 1328,-492 1322,-492"/>
<text xml:space="preserve" text-anchor="middle" x="1103.25" y="-474.7" font-family="Courier,monospace" font-size="14.00">METHOD ENTRY: isPalindrome</text>
<text xml:space="preserve" text-anchor="middle" x="1103.25" y="-458.2" font-family="Courier,monospace" font-size="14.00">Line: 12</text>
<text xml:space="preserve" text-anchor="middle" x="1103.25" y="-441.7" font-family="Courier,monospace" font-size="14.00">L13: str = str.toLowerCase(); // Optional: ignore case</text>
<text xml:space="preserve" text-anchor="middle" x="1103.25" y="-425.2" font-family="Courier,monospace" font-size="14.00">L14: int left = 0;</text>
<text xml:space="preserve" text-anchor="middle" x="1103.25" y="-408.7" font-family="Courier,monospace" font-size="14.00">L15: int right = str.length() &#45; 1;</text>
</g>
<!-- B6 -->
<g id="node7" class="node">
<title>B6</title>
<path fill="#e0f7fa" stroke="black" d="M1161.12,-365.5C1161.12,-365.5 1045.38,-365.5 1045.38,-365.5 1039.38,-365.5 1033.38,-359.5 1033.38,-353.5 1033.38,-353.5 1033.38,-336.5 1033.38,-336.5 1033.38,-330.5 1039.38,-324.5 1045.38,-324.5 1045.38,-324.5 1161.12,-324.5 1161.12,-324.5 1167.12,-324.5 1173.12,-330.5 1173.12,-336.5 1173.12,-336.5 1173.12,-353.5 1173.12,-353.5 1173.12,-359.5 1167.12,-365.5 1161.12,-365.5"/>
<text xml:space="preserve" text-anchor="middle" x="1103.25" y="-348.2" font-family="Courier,monospace" font-size="14.00">WHILE CONDITION</text>
<text xml:space="preserve" text-anchor="middle" x="1103.25" y="-331.7" font-family="Courier,monospace" font-size="14.00">L?: </text>
</g>
<!-- B5&#45;&gt;B6 -->
<g id="edge6" class="edge">
<title>B5&#45;&gt;B6</title>
<path fill="none" stroke="black" d="M1103.25,-401.13C1103.25,-392.93 1103.25,-384.54 1103.25,-376.86"/>
<polygon fill="black" stroke="black" points="1103.25,-367.08 1107.75,-377.08 1103.25,-370.86 1103.25,-377.08 1103.25,-377.08 1103.25,-377.08 1103.25,-370.86 1098.75,-377.08 1103.25,-367.08"/>
</g>
<!-- B7 -->
<g id="node8" class="node">
<title>B7</title>
<path fill="#e0f7fa" stroke="black" d="M1136.38,-286C1136.38,-286 1070.12,-286 1070.12,-286 1064.12,-286 1058.12,-280 1058.12,-274 1058.12,-274 1058.12,-262 1058.12,-262 1058.12,-256 1064.12,-250 1070.12,-250 1070.12,-250 1136.38,-250 1136.38,-250 1142.38,-250 1148.38,-256 1148.38,-262 1148.38,-262 1148.38,-274 1148.38,-274 1148.38,-280 1142.38,-286 1136.38,-286"/>
<text xml:space="preserve" text-anchor="middle" x="1103.25" y="-262.95" font-family="Courier,monospace" font-size="14.00">LOOP BODY</text>
</g>
<!-- B6&#45;&gt;B7 -->
<g id="edge7" class="edge">
<title>B6&#45;&gt;B7</title>
<path fill="none" stroke="black" d="M1097.23,-324.29C1096.5,-316.09 1096.32,-306.4 1096.68,-297.44"/>
<polygon fill="black" stroke="black" points="1097.38,-287.49 1101.17,-297.78 1097.11,-291.26 1096.68,-297.47 1096.68,-297.47 1096.68,-297.47 1097.11,-291.26 1092.19,-297.15 1097.38,-287.49"/>
</g>
<!-- B12 -->
<g id="node13" class="node">
<title>B12</title>
<path fill="#e0f7fa" stroke="black" d="M1426.12,-288.5C1426.12,-288.5 1178.38,-288.5 1178.38,-288.5 1172.38,-288.5 1166.38,-282.5 1166.38,-276.5 1166.38,-276.5 1166.38,-259.5 1166.38,-259.5 1166.38,-253.5 1172.38,-247.5 1178.38,-247.5 1178.38,-247.5 1426.12,-247.5 1426.12,-247.5 1432.12,-247.5 1438.12,-253.5 1438.12,-259.5 1438.12,-259.5 1438.12,-276.5 1438.12,-276.5 1438.12,-282.5 1432.12,-288.5 1426.12,-288.5"/>
<text xml:space="preserve" text-anchor="middle" x="1302.25" y="-271.2" font-family="Courier,monospace" font-size="14.00">LOOP EXIT</text>
<text xml:space="preserve" text-anchor="middle" x="1302.25" y="-254.7" font-family="Courier,monospace" font-size="14.00">L25: return true; // Palindrome</text>
</g>
<!-- B6&#45;&gt;B12 -->
<g id="edge8" class="edge">
<title>B6&#45;&gt;B12</title>
<path fill="none" stroke="black" d="M1156.06,-324.1C1181.47,-314.52 1212.14,-302.96 1238.81,-292.91"/>
<polygon fill="black" stroke="black" points="1248.06,-289.42 1240.29,-297.16 1244.52,-290.76 1238.7,-292.95 1238.7,-292.95 1238.7,-292.95 1244.52,-290.76 1237.11,-288.74 1248.06,-289.42"/>
</g>
<!-- B7&#45;&gt;B6 -->
<g id="edge10" class="edge">
<title>B7&#45;&gt;B6</title>
<path fill="none" stroke="black" d="M1109.04,-286.28C1109.88,-294.25 1110.17,-303.97 1109.9,-313.14"/>
<polygon fill="black" stroke="black" points="1109.34,-323.08 1105.42,-312.84 1109.56,-319.3 1109.91,-313.09 1109.91,-313.09 1109.91,-313.09 1109.56,-319.3 1114.4,-313.35 1109.34,-323.08"/>
</g>
<!-- B8 -->
<g id="node9" class="node">
<title>B8</title>
<path fill="#e0f7fa" stroke="black" d="M1148.75,-211.5C1148.75,-211.5 1057.75,-211.5 1057.75,-211.5 1051.75,-211.5 1045.75,-205.5 1045.75,-199.5 1045.75,-199.5 1045.75,-182.5 1045.75,-182.5 1045.75,-176.5 1051.75,-170.5 1057.75,-170.5 1057.75,-170.5 1148.75,-170.5 1148.75,-170.5 1154.75,-170.5 1160.75,-176.5 1160.75,-182.5 1160.75,-182.5 1160.75,-199.5 1160.75,-199.5 1160.75,-205.5 1154.75,-211.5 1148.75,-211.5"/>
<text xml:space="preserve" text-anchor="middle" x="1103.25" y="-194.2" font-family="Courier,monospace" font-size="14.00">IF CONDITION</text>
<text xml:space="preserve" text-anchor="middle" x="1103.25" y="-177.7" font-family="Courier,monospace" font-size="14.00">L?: </text>
</g>
<!-- B7&#45;&gt;B8 -->
<g id="edge9" class="edge">
<title>B7&#45;&gt;B8</title>
<path fill="none" stroke="black" d="M1103.25,-249.6C1103.25,-241.69 1103.25,-232.09 1103.25,-223.01"/>
<polygon fill="black" stroke="black" points="1103.25,-213.17 1107.75,-223.17 1103.25,-216.95 1103.25,-223.17 1103.25,-223.17 1103.25,-223.17 1103.25,-216.95 1098.75,-223.17 1103.25,-213.17"/>
</g>
<!-- B9 -->
<g id="node10" class="node">
<title>B9</title>
<path fill="#e0f7fa" stroke="black" d="M1159,-134.5C1159,-134.5 853.5,-134.5 853.5,-134.5 847.5,-134.5 841.5,-128.5 841.5,-122.5 841.5,-122.5 841.5,-105.5 841.5,-105.5 841.5,-99.5 847.5,-93.5 853.5,-93.5 853.5,-93.5 1159,-93.5 1159,-93.5 1165,-93.5 1171,-99.5 1171,-105.5 1171,-105.5 1171,-122.5 1171,-122.5 1171,-128.5 1165,-134.5 1159,-134.5"/>
<text xml:space="preserve" text-anchor="middle" x="1006.25" y="-117.2" font-family="Courier,monospace" font-size="14.00">THEN BRANCH</text>
<text xml:space="preserve" text-anchor="middle" x="1006.25" y="-100.7" font-family="Courier,monospace" font-size="14.00">L19: return false; // Not a palindrome</text>
</g>
<!-- B8&#45;&gt;B9 -->
<g id="edge11" class="edge">
<title>B8&#45;&gt;B9</title>
<path fill="none" stroke="black" d="M1077.51,-170.1C1066.22,-161.37 1052.8,-150.99 1040.67,-141.61"/>
<polygon fill="black" stroke="black" points="1033.07,-135.74 1043.74,-138.3 1036.07,-138.05 1040.98,-141.86 1040.98,-141.86 1040.98,-141.86 1036.07,-138.05 1038.23,-145.42 1033.07,-135.74"/>
</g>
<!-- B11 -->
<g id="node12" class="node">
<title>B11</title>
<path fill="#e0f7fa" stroke="black" d="M1218.88,-57.5C1218.88,-57.5 1119.62,-57.5 1119.62,-57.5 1113.62,-57.5 1107.62,-51.5 1107.62,-45.5 1107.62,-45.5 1107.62,-12 1107.62,-12 1107.62,-6 1113.62,0 1119.62,0 1119.62,0 1218.88,0 1218.88,0 1224.88,0 1230.88,-6 1230.88,-12 1230.88,-12 1230.88,-45.5 1230.88,-45.5 1230.88,-51.5 1224.88,-57.5 1218.88,-57.5"/>
<text xml:space="preserve" text-anchor="middle" x="1169.25" y="-40.2" font-family="Courier,monospace" font-size="14.00">IF MERGE</text>
<text xml:space="preserve" text-anchor="middle" x="1169.25" y="-23.7" font-family="Courier,monospace" font-size="14.00">L21: left++;</text>
<text xml:space="preserve" text-anchor="middle" x="1169.25" y="-7.2" font-family="Courier,monospace" font-size="14.00">L22: right&#45;&#45;;</text>
</g>
<!-- B8&#45;&gt;B11 -->
<g id="edge12" class="edge">
<title>B8&#45;&gt;B11</title>
<path fill="none" stroke="black" d="M1145,-170.15C1158.81,-161.31 1172.59,-149.46 1180.25,-134.5 1190.56,-114.36 1188.33,-89.21 1183.28,-68.6"/>
<polygon fill="black" stroke="black" points="1180.66,-59.16 1187.67,-67.6 1181.67,-62.81 1183.33,-68.8 1183.33,-68.8 1183.33,-68.8 1181.67,-62.81 1179,-70 1180.66,-59.16"/>
</g>
<!-- B10 -->
<g id="node11" class="node">
<title>B10</title>
<path fill="#e0f7fa" stroke="black" d="M1047.62,-46.75C1047.62,-46.75 964.88,-46.75 964.88,-46.75 958.88,-46.75 952.88,-40.75 952.88,-34.75 952.88,-34.75 952.88,-22.75 952.88,-22.75 952.88,-16.75 958.88,-10.75 964.88,-10.75 964.88,-10.75 1047.62,-10.75 1047.62,-10.75 1053.62,-10.75 1059.62,-16.75 1059.62,-22.75 1059.62,-22.75 1059.62,-34.75 1059.62,-34.75 1059.62,-40.75 1053.62,-46.75 1047.62,-46.75"/>
<text xml:space="preserve" text-anchor="middle" x="1006.25" y="-23.7" font-family="Courier,monospace" font-size="14.00">METHOD EXIT</text>
</g>
<!-- B9&#45;&gt;B10 -->
<g id="edge13" class="edge">
<title>B9&#45;&gt;B10</title>
<path fill="none" stroke="black" d="M1006.25,-93.27C1006.25,-82.74 1006.25,-69.6 1006.25,-58"/>
<polygon fill="black" stroke="black" points="1006.25,-48.3 1010.75,-58.3 1006.25,-52.08 1006.25,-58.3 1006.25,-58.3 1006.25,-58.3 1006.25,-52.08 1001.75,-58.3 1006.25,-48.3"/>
</g>
<!-- B9&#45;&gt;B11 -->
<g id="edge14" class="edge">
<title>B9&#45;&gt;B11</title>
<path fill="none" stroke="black" d="M1045.29,-93.06C1062.94,-84.05 1084.27,-73.15 1104.22,-62.96"/>
<polygon fill="black" stroke="black" points="1113.11,-58.42 1106.25,-66.98 1109.74,-60.14 1104.2,-62.97 1104.2,-62.97 1104.2,-62.97 1109.74,-60.14 1102.15,-58.96 1113.11,-58.42"/>
</g>
<!-- B13 -->
<g id="node14" class="node">
<title>B13</title>
<path fill="#e0f7fa" stroke="black" d="M1343.62,-209C1343.62,-209 1260.88,-209 1260.88,-209 1254.88,-209 1248.88,-203 1248.88,-197 1248.88,-197 1248.88,-185 1248.88,-185 1248.88,-179 1254.88,-173 1260.88,-173 1260.88,-173 1343.62,-173 1343.62,-173 1349.62,-173 1355.62,-179 1355.62,-185 1355.62,-185 1355.62,-197 1355.62,-197 1355.62,-203 1349.62,-209 1343.62,-209"/>
<text xml:space="preserve" text-anchor="middle" x="1302.25" y="-185.95" font-family="Courier,monospace" font-size="14.00">METHOD EXIT</text>
</g>
<!-- B12&#45;&gt;B13 -->
<g id="edge15" class="edge">
<title>B12&#45;&gt;B13</title>
<path fill="none" stroke="black" d="M1302.25,-247.29C1302.25,-239.09 1302.25,-229.4 1302.25,-220.44"/>
<polygon fill="black" stroke="black" points="1302.25,-210.5 1306.75,-220.5 1302.25,-214.28 1302.25,-220.5 1302.25,-220.5 1302.25,-220.5 1302.25,-214.28 1297.75,-220.5 1302.25,-210.5"/>
</g>
</g>
</svg>
