<?xml version="1.0" encoding="UTF-8" standalone="no"?>
<!DOCTYPE svg PUBLIC "-//W3C//DTD SVG 1.1//EN"
 "http://www.w3.org/Graphics/SVG/1.1/DTD/svg11.dtd">
<!-- Generated by graphviz version 13.1.1 (20250719.2154)
 -->
<!-- Pages: 1 -->
<svg width="8517pt" height="396pt"
 viewBox="0.00 0.00 8517.00 396.00" xmlns="http://www.w3.org/2000/svg" xmlns:xlink="http://www.w3.org/1999/xlink">
<g id="graph0" class="graph" transform="scale(1 1) rotate(0) translate(4 391.95)">
<polygon fill="white" stroke="none" points="-4,4 -4,-391.95 8513.08,-391.95 8513.08,4 -4,4"/>
<!-- block_0 -->
<g id="node1" class="node">
<title>block_0</title>
<ellipse fill="none" stroke="black" cx="952.65" cy="-335.63" rx="209.13" ry="28.99"/>
<text xml:space="preserve" text-anchor="middle" x="952.65" y="-338.83" font-family="Times New Roman,serif" font-size="14.00">METHOD: main</text>
<text xml:space="preserve" text-anchor="middle" x="952.65" y="-322.33" font-family="Times New Roman,serif" font-size="14.00">LocalVariableDeclaration(annotations=[], declarato</text>
</g>
<!-- block_1 -->
<g id="node2" class="node">
<title>block_1</title>
<ellipse fill="none" stroke="black" cx="952.65" cy="-218.31" rx="952.65" ry="18"/>
<text xml:space="preserve" text-anchor="middle" x="952.65" y="-213.26" font-family="Times New Roman,serif" font-size="14.00">IF: MethodInvocation(arguments=[MemberReference(member=str, postfix_operators=[], prefix_operators=[], qualifier=, selectors=[])], member=isPalindrome, postfix_operators=[], prefix_operators=[], qualifier=, selectors=[], type_arguments=None)</text>
</g>
<!-- block_0&#45;&gt;block_1 -->
<g id="edge1" class="edge">
<title>block_0&#45;&gt;block_1</title>
<path fill="none" stroke="black" d="M952.65,-306.42C952.65,-288.65 952.65,-265.78 952.65,-247.93"/>
<polygon fill="black" stroke="black" points="956.15,-248.01 952.65,-238.01 949.15,-248.01 956.15,-248.01"/>
</g>
<!-- block_4 -->
<g id="node5" class="node">
<title>block_4</title>
<ellipse fill="none" stroke="black" cx="952.65" cy="-112.66" rx="223.98" ry="28.99"/>
<text xml:space="preserve" text-anchor="middle" x="952.65" y="-115.86" font-family="Times New Roman,serif" font-size="14.00">ELSE</text>
<text xml:space="preserve" text-anchor="middle" x="952.65" y="-99.36" font-family="Times New Roman,serif" font-size="14.00">StatementExpression(expression=MethodInvocation(ar</text>
</g>
<!-- block_1&#45;&gt;block_4 -->
<g id="edge2" class="edge">
<title>block_1&#45;&gt;block_4</title>
<path fill="none" stroke="black" d="M952.65,-200.19C952.65,-187.42 952.65,-169.45 952.65,-153.19"/>
<polygon fill="black" stroke="black" points="956.15,-153.26 952.65,-143.26 949.15,-153.26 956.15,-153.26"/>
</g>
<!-- block_2 -->
<g id="node3" class="node">
<title>block_2</title>
<ellipse fill="none" stroke="black" cx="1418.65" cy="-112.66" rx="223.98" ry="28.99"/>
<text xml:space="preserve" text-anchor="middle" x="1418.65" y="-115.86" font-family="Times New Roman,serif" font-size="14.00">THEN</text>
<text xml:space="preserve" text-anchor="middle" x="1418.65" y="-99.36" font-family="Times New Roman,serif" font-size="14.00">StatementExpression(expression=MethodInvocation(ar</text>
</g>
<!-- block_3 -->
<g id="node4" class="node">
<title>block_3</title>
<ellipse fill="none" stroke="black" cx="1185.65" cy="-18" rx="40.6" ry="18"/>
<text xml:space="preserve" text-anchor="middle" x="1185.65" y="-12.95" font-family="Times New Roman,serif" font-size="14.00">END IF</text>
</g>
<!-- block_2&#45;&gt;block_3 -->
<g id="edge3" class="edge">
<title>block_2&#45;&gt;block_3</title>
<path fill="none" stroke="black" d="M1350.63,-84.61C1310.02,-68.46 1259.86,-48.51 1225.57,-34.88"/>
<polygon fill="black" stroke="black" points="1227.02,-31.69 1216.44,-31.25 1224.44,-38.19 1227.02,-31.69"/>
</g>
<!-- block_4&#45;&gt;block_3 -->
<g id="edge4" class="edge">
<title>block_4&#45;&gt;block_3</title>
<path fill="none" stroke="black" d="M1020.67,-84.61C1061.27,-68.46 1111.44,-48.51 1145.72,-34.88"/>
<polygon fill="black" stroke="black" points="1146.86,-38.19 1154.85,-31.25 1144.27,-31.69 1146.86,-38.19"/>
</g>
<!-- block_5 -->
<g id="node6" class="node">
<title>block_5</title>
<ellipse fill="none" stroke="black" cx="2921.65" cy="-335.63" rx="222.92" ry="52.33"/>
<text xml:space="preserve" text-anchor="middle" x="2921.65" y="-355.33" font-family="Times New Roman,serif" font-size="14.00">METHOD: isPalindrome</text>
<text xml:space="preserve" text-anchor="middle" x="2921.65" y="-338.83" font-family="Times New Roman,serif" font-size="14.00">StatementExpression(expression=Assignment(expressi</text>
<text xml:space="preserve" text-anchor="middle" x="2921.65" y="-322.33" font-family="Times New Roman,serif" font-size="14.00">LocalVariableDeclaration(annotations=[], declarato</text>
<text xml:space="preserve" text-anchor="middle" x="2921.65" y="-305.83" font-family="Times New Roman,serif" font-size="14.00">LocalVariableDeclaration(annotations=[], declarato</text>
</g>
<!-- block_6 -->
<g id="node7" class="node">
<title>block_6</title>
<ellipse fill="none" stroke="black" cx="2921.65" cy="-218.31" rx="998.2" ry="18"/>
<text xml:space="preserve" text-anchor="middle" x="2921.65" y="-213.26" font-family="Times New Roman,serif" font-size="14.00">WHILE: BinaryOperation(operandl=MemberReference(member=left, postfix_operators=[], prefix_operators=[], qualifier=, selectors=[]), operandr=MemberReference(member=right, postfix_operators=[], prefix_operators=[], qualifier=, selectors=[]), operator=&lt;)</text>
</g>
<!-- block_5&#45;&gt;block_6 -->
<g id="edge5" class="edge">
<title>block_5&#45;&gt;block_6</title>
<path fill="none" stroke="black" d="M2921.65,-283.04C2921.65,-271.06 2921.65,-258.72 2921.65,-248.13"/>
<polygon fill="black" stroke="black" points="2925.15,-248.14 2921.65,-238.14 2918.15,-248.14 2925.15,-248.14"/>
</g>
<!-- block_8 -->
<g id="node9" class="node">
<title>block_8</title>
<ellipse fill="none" stroke="black" cx="2921.65" cy="-112.66" rx="214.43" ry="28.99"/>
<text xml:space="preserve" text-anchor="middle" x="2921.65" y="-115.86" font-family="Times New Roman,serif" font-size="14.00">END WHILE</text>
<text xml:space="preserve" text-anchor="middle" x="2921.65" y="-99.36" font-family="Times New Roman,serif" font-size="14.00">ReturnStatement(expression=Literal(postfix_operato</text>
</g>
<!-- block_6&#45;&gt;block_8 -->
<g id="edge6" class="edge">
<title>block_6&#45;&gt;block_8</title>
<path fill="none" stroke="black" d="M2921.65,-200.19C2921.65,-187.42 2921.65,-169.45 2921.65,-153.19"/>
<polygon fill="black" stroke="black" points="2925.15,-153.26 2921.65,-143.26 2918.15,-153.26 2925.15,-153.26"/>
</g>
<!-- block_7 -->
<g id="node8" class="node">
<title>block_7</title>
<ellipse fill="none" stroke="black" cx="4612.65" cy="-335.63" rx="63.63" ry="18"/>
<text xml:space="preserve" text-anchor="middle" x="4612.65" y="-330.58" font-family="Times New Roman,serif" font-size="14.00">LOOP BODY</text>
</g>
<!-- block_7&#45;&gt;block_6 -->
<g id="edge8" class="edge">
<title>block_7&#45;&gt;block_6</title>
<path fill="none" stroke="black" d="M4551.21,-330.44C4332.35,-315.51 3582.37,-264.37 3180.63,-236.97"/>
<polygon fill="black" stroke="black" points="3181.17,-233.5 3170.95,-236.31 3180.69,-240.48 3181.17,-233.5"/>
</g>
<!-- block_9 -->
<g id="node10" class="node">
<title>block_9</title>
<ellipse fill="none" stroke="black" cx="5999.65" cy="-218.31" rx="2062.25" ry="18"/>
<text xml:space="preserve" text-anchor="middle" x="5999.65" y="-213.26" font-family="Times New Roman,serif" font-size="14.00">IF: BinaryOperation(operandl=MethodInvocation(arguments=[MemberReference(member=left, postfix_operators=[], prefix_operators=[], qualifier=, selectors=[])], member=charAt, postfix_operators=[], prefix_operators=[], qualifier=str, selectors=[], type_arguments=None), operandr=MethodInvocation(arguments=[MemberReference(member=right, postfix_operators=[], prefix_operators=[], qualifier=, selectors=[])], member=charAt, postfix_operators=[], prefix_operators=[], qualifier=str, selectors=[], type_arguments=None), operator=!=)</text>
</g>
<!-- block_7&#45;&gt;block_9 -->
<g id="edge7" class="edge">
<title>block_7&#45;&gt;block_9</title>
<path fill="none" stroke="black" d="M4673.14,-329.6C4862.96,-313.81 5453.51,-264.72 5778.94,-237.66"/>
<polygon fill="black" stroke="black" points="5779.22,-241.15 5788.89,-236.83 5778.64,-234.17 5779.22,-241.15"/>
</g>
<!-- block_11 -->
<g id="node12" class="node">
<title>block_11</title>
<ellipse fill="none" stroke="black" cx="7146.65" cy="-112.66" rx="237.76" ry="40.66"/>
<text xml:space="preserve" text-anchor="middle" x="7146.65" y="-124.11" font-family="Times New Roman,serif" font-size="14.00">END IF</text>
<text xml:space="preserve" text-anchor="middle" x="7146.65" y="-107.61" font-family="Times New Roman,serif" font-size="14.00">StatementExpression(expression=MemberReference(mem</text>
<text xml:space="preserve" text-anchor="middle" x="7146.65" y="-91.11" font-family="Times New Roman,serif" font-size="14.00">StatementExpression(expression=MemberReference(mem</text>
</g>
<!-- block_9&#45;&gt;block_11 -->
<g id="edge9" class="edge">
<title>block_9&#45;&gt;block_11</title>
<path fill="none" stroke="black" d="M6192.27,-199.9C6395.23,-181.56 6714.32,-152.73 6926.94,-133.51"/>
<polygon fill="black" stroke="black" points="6927.1,-137.01 6936.74,-132.63 6926.47,-130.04 6927.1,-137.01"/>
</g>
<!-- block_10 -->
<g id="node11" class="node">
<title>block_10</title>
<ellipse fill="none" stroke="black" cx="8294.65" cy="-218.31" rx="214.43" ry="28.99"/>
<text xml:space="preserve" text-anchor="middle" x="8294.65" y="-221.51" font-family="Times New Roman,serif" font-size="14.00">THEN</text>
<text xml:space="preserve" text-anchor="middle" x="8294.65" y="-205.01" font-family="Times New Roman,serif" font-size="14.00">ReturnStatement(expression=Literal(postfix_operato</text>
</g>
<!-- block_10&#45;&gt;block_11 -->
<g id="edge10" class="edge">
<title>block_10&#45;&gt;block_11</title>
<path fill="none" stroke="black" d="M8142.92,-197.46C8118.77,-194.56 8094.04,-191.74 8070.65,-189.32 7834.52,-164.91 7563.78,-143.51 7376.68,-129.76"/>
<polygon fill="black" stroke="black" points="7377.06,-126.28 7366.83,-129.04 7376.55,-133.26 7377.06,-126.28"/>
</g>
</g>
</svg>
